- 
http://www.Speed.Cd 
       
http://www.Speed.Cd      fast  and The Hottest Private Tracker on the net

(((--Submit for invite!!--)))

Please Seed back to make the speed Faster!!!

------------------nfo--------------------------
-                                                                                                     
       
     
     
       
       
     
     
                                         
                                         
                EXVID                    
                                         
         
                                         
         Filled the Archives             
                                         
         
                                         
                With:                    
                                         
         
                                         
                                    
     E240                           
                                    
     SP               (C) 2009      
                                         
     
     
     
                                                                                  
                                                                                   
                 Lonesome.Dove.1989.WS.DVDRip.XviD-EXViD                            
                                                                                   
                                                                                  
     
                                                                                               
EXViD aims to iNTERNAL those releases which have been lost in the archives.
EXViD aims to PRE non-internal releases which have poor sources and are likely skipped by others.
 
http://www.imdb.com/title/tt0096639/
Subtitles: English
Date: 2011.08

Director: Simon Wincer

Genres: Adventure | Drama | Western

Plot:
Epic story about two former Texas rangers who decide to move cattle from the south to Montana.
Augustus McCrae and Woodrow Call run into many problems on the way, and the journey doesn't end
without numerous casualties.

Cast:

Robert Duvall 	 ... 	 Augustus 'Gus' McCrae
Tommy Lee Jones 	 ... 	 Woodrow F. Call
Danny Glover 	 ... 	 Joshua Deets
Diane Lane 	 ... 	 Lorena Wood
Robert Urich 	 ... 	 Jake Spoon
Frederic Forrest 	 ... 	 Blue Duck
D.B. Sweeney 	 ... 	 Dish Boggett
Rick Schroder 	 ... 	 Newt Dobbs
Anjelica Huston 	 ... 	 Clara Allen
Chris Cooper 	 ... 	 July Johnson
Timothy Scott 	 ... 	 Pea Eye Parker
Glenne Headly 	 ... 	 Elmira Boot Johnson
Barry Corbin 	 ... 	 Roscoe Brown
William Sanderson 	 ... 	 Lippy Jones
Barry Tubb 	 ... 	 Jasper Fant

Stats:
Format                           : AVI
Format/Info                      : Audio Video Interleave
File size                        : 2.73 GiB
Duration                         : 5h 57mn
Overall bit rate                 : 1 096 Kbps
Writing application              : Nandub v1.0rc2
Writing library                  : Nandub build 1852/release

Video
ID                               : 0
Format                           : MPEG-4 Visual
Format profile                   : Advanced Simple@L5
Format settings, BVOP            : 2
Format settings, QPel            : No
Format settings, GMC             : No warppoints
Format settings, Matrix          : Default (H.263)
Codec ID                         : XVID
Codec ID/Hint                    : XviD
Duration                         : 5h 57mn
Bit rate                         : 963 Kbps
Width                            : 592 pixels
Height                           : 336 pixels
Display aspect ratio             : 16:9
Frame rate                       : 25.000 fps
Color space                      : YUV
Chroma subsampling               : 4:2:0
Bit depth                        : 8 bits
Scan type                        : Progressive
Compression mode                 : Lossy
Bits/(Pixel*Frame)               : 0.194
Stream size                      : 2.40 GiB (88%)
Writing library                  : XviD 64

Audio
ID                               : 1
Format                           : MPEG Audio
Format version                   : Version 1
Format profile                   : Layer 3
Mode                             : Joint stereo
Mode extension                   : MS Stereo
Codec ID                         : 55
Codec ID/Hint                    : MP3
Duration                         : 5h 57mn
Bit rate mode                    : Variable
Bit rate                         : 120 Kbps
Nominal bit rate                 : 128 Kbps
Channel(s)                       : 2 channels
Sampling rate                    : 48.0 KHz
Compression mode                 : Lossy
Stream size                      : 306.8 MiB (11%)
Alignment                        : Aligned on interleaves
Interleave, duration             : 24 ms (0.60 video frame)
Interleave, preload duration     : 485 ms
Writing library                  : LAME3.98r
Encoding settings                : -m j -V 4 -q 3 -lowpass 17 --abr 128




Release notes:
DioXidE rip was FS, as are all iNTERNAL rips (including NWA which has wrong specs in nfo).

enjoy!

Looking for:
75TB+ Archives
DUTCH/FLEMiSH Archives
                                                                                                    
Greets: CRBS EPiSODE FiCO FLS iLS KLASSiGER LiPSYNC MADE NODLABS RUNNER SPRiNTER      
   

                                                                    ASCII DONE BY XX^NFO 2oo9